<svg width="13" height="13" viewBox="0 0 13 13" fill="none" xmlns="http://www.w3.org/2000/svg">
<path d="M12.085 4.56762C12.4868 4.56762 12.8137 4.24553 12.8137 3.84964V2.92001C12.8137 2.62523 12.6345 2.36396 12.357 2.25394L6.89229 0.0526276C6.71434 -0.0179972 6.52178 -0.0167527 6.34835 0.0516225C6.34432 0.0532259 6.43981 0.0147665 0.881024 2.25396C0.603525 2.36396 0.424316 2.62525 0.424316 2.92003V3.84969C0.424316 4.24558 0.751251 4.56766 1.15311 4.56766H1.59038V9.97641H1.15311C0.751251 9.97641 0.424316 10.2985 0.424316 10.6944V11.532C0.424316 11.9279 0.751251 12.25 1.15311 12.25H12.0849C12.4868 12.25 12.8137 11.9279 12.8137 11.532V10.6944C12.8137 10.2985 12.4868 9.97641 12.0849 9.97641H11.6477V4.56766L12.085 4.56762ZM12.085 10.6943C12.0854 11.5511 12.0874 11.532 12.085 11.532H1.15313V10.6943H12.085ZM2.31919 9.97636V4.56762H3.14515V9.97636H2.31919ZM3.87394 9.97636V4.56762H5.47728V9.97636H3.87394ZM6.20606 9.97636V4.56762H7.03202V9.97636H6.20606ZM7.76081 9.97636V4.56762H9.36415V9.97636H7.76081ZM10.0929 9.97636V4.56762H10.9189V9.97636H10.0929ZM1.15313 3.84964C1.15313 2.84823 1.15204 2.92044 1.15568 2.91898L6.61904 0.718215L12.0824 2.91898C12.0862 2.92046 12.085 2.8506 12.085 3.84964C11.9638 3.84964 1.29707 3.84964 1.15313 3.84964Z" fill="#8A8A8A"/>
</svg>
