<svg width="200" height="58" viewBox="0 0 200 58" fill="none" xmlns="http://www.w3.org/2000/svg">
<path d="M22.5296 25.4481H26.0695C26.6407 25.4512 27.2111 25.4072 27.7747 25.3166C28.2595 25.2429 28.7273 25.0866 29.1569 24.8546C29.5347 24.6491 29.8538 24.3541 30.0849 23.9965C30.3221 23.5964 30.4386 23.1387 30.421 22.6765C30.421 21.9291 30.1193 21.3677 29.511 20.994C28.9027 20.6203 28.0501 20.4326 26.9483 20.4326C25.8543 20.4162 24.7638 20.5573 23.7118 20.8512C22.7956 21.1236 21.9131 21.4943 21.0802 21.9563L19.3931 17.8968C20.4069 17.3001 21.5037 16.85 22.6493 16.5607C24.0642 16.1991 25.5221 16.0238 26.9844 16.0394C28.1685 16.031 29.3488 16.1712 30.4964 16.4564C31.4924 16.6976 32.4364 17.1109 33.2837 17.677C34.0613 18.2029 34.6952 18.9073 35.1299 19.7285C35.5838 20.6248 35.8088 21.6155 35.7857 22.6156C35.775 23.4899 35.5369 24.3471 35.0938 25.1065C34.5908 25.9733 33.8644 26.6961 32.9869 27.2028C33.5064 27.4665 34.0003 27.7757 34.4626 28.1267C34.922 28.4776 35.3302 28.8882 35.6759 29.3473C36.0307 29.8248 36.3073 30.3535 36.4957 30.9143C36.7067 31.549 36.8092 32.2134 36.799 32.8808C36.799 35.3241 35.9163 37.1007 34.151 38.2106C32.3858 39.3206 29.9291 39.8761 26.7811 39.8771C25.9966 39.8792 25.213 39.8256 24.4365 39.7167C23.6615 39.6098 22.9193 39.4724 22.2099 39.3045C21.5357 39.1493 20.8711 38.9565 20.2194 38.7271C19.6577 38.5321 19.11 38.3006 18.5798 38.0342L20.1325 34.0083C20.4457 34.1398 20.8343 34.289 21.295 34.4526C21.7557 34.6162 22.2673 34.7734 22.8313 34.9338C23.3953 35.0942 23.979 35.2193 24.584 35.33C25.1854 35.4382 25.7958 35.4919 26.4073 35.4904C27.8905 35.4904 29.0874 35.2813 29.998 34.8632C30.9085 34.4451 31.3643 33.7191 31.3654 32.6851C31.3913 32.1357 31.238 31.5925 30.9276 31.1341C30.6219 30.7286 30.2069 30.4143 29.7291 30.2262C29.1566 30.0013 28.5543 29.8571 27.9403 29.798C27.1955 29.7179 26.4466 29.6793 25.6973 29.6825H22.5296V25.4481Z" fill="#1D1D1B"/>
<path d="M47.0563 21.5874C48.5396 21.5874 49.7769 21.7526 50.7683 22.083C51.6677 22.3586 52.4845 22.8454 53.1474 23.5009C53.7515 24.136 54.1858 24.9074 54.4115 25.7464C54.6681 26.7049 54.7927 27.6925 54.782 28.6832V38.9147C54.0606 39.0623 53.0588 39.243 51.7767 39.4569C50.2364 39.6863 48.6798 39.7935 47.1219 39.7777C46.0756 39.7874 45.0313 39.6879 44.0066 39.4809C43.1462 39.3127 42.3275 38.982 41.5964 38.5073C40.9281 38.0644 40.3922 37.4554 40.0438 36.743C39.6852 36.018 39.5054 35.1273 39.5043 34.0709C39.5043 33.0582 39.7126 32.2001 40.129 31.4965C40.5309 30.8065 41.1052 30.2276 41.7981 29.814C42.5375 29.3805 43.347 29.0735 44.1919 28.9062C45.1134 28.7174 46.0525 28.6234 46.994 28.6255C47.5739 28.6216 48.1536 28.6495 48.7303 28.7089C49.1459 28.7478 49.5576 28.8192 49.9616 28.9222V28.4603C49.9616 27.6252 49.7031 26.9542 49.1861 26.4473C48.6691 25.9405 47.769 25.6876 46.4857 25.6887C45.6396 25.6884 44.7945 25.7489 43.9575 25.8699C43.2218 25.9682 42.4982 26.1396 41.7981 26.3816L41.1538 22.4118C41.4456 22.3252 41.8096 22.2306 42.2506 22.1311C42.6917 22.0317 43.1655 21.9451 43.6836 21.8681C44.2018 21.7911 44.7461 21.7253 45.3232 21.6692C45.9004 21.6131 46.4693 21.5874 47.0563 21.5874ZM47.4613 35.9747C47.9531 35.9747 48.4286 35.9651 48.8795 35.9426C49.2407 35.9291 49.6009 35.8959 49.9584 35.8432V32.114C49.7551 32.0707 49.4534 32.0274 49.0484 31.9825C48.6782 31.941 48.306 31.919 47.9335 31.9168C47.4883 31.9151 47.0436 31.9424 46.6021 31.9986C46.2216 32.0443 45.8512 32.1499 45.5052 32.3113C45.206 32.4534 44.9499 32.6696 44.7625 32.9385C44.5745 33.2355 44.4809 33.5805 44.4936 33.9297C44.4936 34.6996 44.7581 35.2342 45.2872 35.5336C45.8162 35.833 46.5398 35.9801 47.458 35.9747H47.4613Z" fill="#1D1D1B"/>
<path d="M75.4918 22.0493V39.4071H70.432C70.432 38.3068 70.4429 37.2124 70.4648 36.1239C70.4867 35.0353 70.5091 34.0286 70.532 33.1037C70.555 32.1798 70.5829 31.3714 70.6156 30.6785C70.6484 29.9856 70.6659 29.4745 70.6681 29.1451C70.0123 30.0466 69.3597 30.9592 68.7104 31.8831C68.0612 32.8069 67.437 33.7158 66.838 34.6098C66.2434 35.5015 65.6816 36.3543 65.1525 37.168C64.6235 37.9818 64.1567 38.7303 63.7523 39.4136H59.3336V22.0493H64.359C64.359 23.1496 64.3535 24.2002 64.3426 25.2011C64.3316 26.2019 64.3147 27.1108 64.2917 27.9277C64.2688 28.7425 64.2464 29.452 64.2245 30.0562C64.2027 30.6603 64.1912 31.1281 64.1901 31.4596C65.54 29.5199 66.7823 27.7802 67.9169 26.2404C69.0515 24.7006 70.1593 23.3036 71.2403 22.0493H75.4918Z" fill="#1D1D1B"/>
<path d="M85.2064 29.3921C85.1626 30.1642 85.1178 31.0014 85.0719 31.9039C85.026 32.8064 84.9867 33.7153 84.9539 34.6306C84.9189 35.547 84.885 36.4174 84.8522 37.2418C84.8178 38.0679 84.7899 38.7912 84.767 39.4071H79.876C79.9198 38.1978 79.993 36.8339 80.0957 35.3155C80.1985 33.7971 80.3105 32.2514 80.4319 30.6785C80.5565 29.1066 80.6915 27.5722 80.8368 26.0752C80.9822 24.5782 81.1227 23.2362 81.2582 22.0493H85.4425C86.4171 23.5958 87.3091 25.1906 88.115 26.8274C88.9282 28.4731 89.7858 30.285 90.6875 32.2632C91.6352 30.1546 92.5605 28.2052 93.4634 26.4152C94.1996 24.9206 95.0128 23.4634 95.8998 22.0493H100.151C100.307 23.2362 100.458 24.5782 100.605 26.0752C100.753 27.5722 100.888 29.1066 101.01 30.6785C101.134 32.2536 101.239 33.7992 101.327 35.3155C101.414 36.8317 101.482 38.1956 101.53 39.4071H96.5409C96.495 37.6899 96.4327 35.9822 96.354 34.2842C96.2753 32.5861 96.2021 30.9421 96.1343 29.352L92.414 37.3541H88.9283L85.2064 29.3921Z" fill="#1D1D1B"/>
<path d="M146.416 30.154C146.416 28.5693 146.207 27.4466 145.791 26.7858C145.374 26.1249 144.661 25.7951 143.65 25.7961C143.321 25.7963 142.993 25.8129 142.666 25.8458C142.338 25.8779 142.01 25.918 141.682 25.9613V39.359H136.66V22.5931C137.086 22.484 137.588 22.3685 138.16 22.2466C138.732 22.1247 139.341 22.0156 139.982 21.9258C140.623 21.836 141.282 21.7494 141.949 21.6949C142.617 21.6403 143.287 21.6115 143.94 21.6115C145.222 21.6115 146.26 21.7718 147.055 22.0926C147.77 22.3653 148.434 22.7499 149.023 23.2314C150.515 22.2278 152.272 21.6664 154.082 21.6147C155.503 21.6147 156.667 21.8071 157.575 22.1921C158.434 22.5393 159.185 23.1032 159.749 23.8265C160.307 24.5702 160.688 25.4268 160.864 26.3334C161.074 27.3993 161.175 28.4831 161.165 29.5686V39.3686H156.158V30.154C156.158 28.5693 155.95 27.4466 155.535 26.7858C155.12 26.1249 154.405 25.7951 153.39 25.7961C153.007 25.8149 152.628 25.8812 152.262 25.9934C151.84 26.1003 151.436 26.2673 151.064 26.489C151.225 27.0112 151.326 27.5491 151.367 28.093C151.413 28.6543 151.436 29.2537 151.436 29.891V39.3542H146.416V30.154Z" fill="#1D1D1B"/>
<path d="M164.894 30.8101C164.894 29.2703 165.136 27.923 165.62 26.7681C166.051 25.6903 166.7 24.7085 167.527 23.881C168.299 23.1215 169.223 22.5267 170.242 22.1344C171.245 21.7421 172.315 21.5407 173.395 21.5409C175.909 21.5409 177.9 22.2942 179.367 23.8008C180.833 25.3075 181.564 27.5241 181.559 30.4508C181.559 30.7363 181.549 31.0506 181.526 31.3923C181.503 31.7339 181.48 32.0339 181.457 32.2985H170.055C170.101 32.7795 170.254 33.2447 170.505 33.6606C170.756 34.0766 171.098 34.4331 171.506 34.7044C172.362 35.2979 173.51 35.5946 174.949 35.5946C175.86 35.5958 176.77 35.5131 177.665 35.3476C178.411 35.2236 179.14 35.0192 179.84 34.7381L180.516 38.7303C180.168 38.8919 179.806 39.0244 179.435 39.1265C178.942 39.2688 178.44 39.3845 177.934 39.4729C177.387 39.5724 176.797 39.6547 176.164 39.7199C175.537 39.7866 174.905 39.8198 174.274 39.8194C172.677 39.8194 171.288 39.5884 170.108 39.1265C169 38.711 167.998 38.0634 167.173 37.229C166.39 36.4141 165.802 35.4388 165.453 34.374C165.073 33.2229 164.884 32.0196 164.894 30.8101ZM176.699 28.9286C176.678 28.5146 176.604 28.1046 176.481 27.708C176.363 27.3226 176.168 26.9639 175.907 26.6526C175.636 26.3358 175.301 26.0774 174.923 25.894C174.463 25.6804 173.957 25.5781 173.448 25.5956C172.949 25.5833 172.453 25.6792 171.997 25.8763C171.618 26.0559 171.281 26.311 171.01 26.6254C170.735 26.9417 170.523 27.3057 170.385 27.6984C170.238 28.1003 170.129 28.5142 170.057 28.935L176.699 28.9286Z" fill="#1D1D1B"/>
<path d="M73.4423 14.4643C73.2219 15.8618 72.4972 17.136 71.3995 18.0559C70.3017 18.9759 68.9034 19.4808 67.4579 19.4793C66.0124 19.4777 64.6152 18.9698 63.5195 18.0475C62.4238 17.1252 61.702 15.8495 61.4847 14.4515L64.718 13.619C64.7355 14.3174 65.0314 14.9815 65.5425 15.4694C66.0537 15.9573 66.7395 16.2305 67.4537 16.2305C68.1678 16.2305 68.8537 15.9573 69.3648 15.4694C69.876 14.9815 70.1719 14.3174 70.1893 13.619L73.4423 14.4643Z" fill="#070707"/>
<path d="M114.409 37.5417C114.409 36.9844 114.24 36.4395 113.924 35.9761C113.607 35.5127 113.157 35.1514 112.631 34.9382C112.104 34.7249 111.525 34.669 110.966 34.7778C110.408 34.8865 109.894 35.1549 109.491 35.549C109.088 35.9432 108.814 36.4453 108.703 36.992C108.592 37.5386 108.649 38.1053 108.867 38.6202C109.085 39.1351 109.454 39.5753 109.928 39.8849C110.402 40.1946 110.959 40.3599 111.528 40.3599C112.292 40.3594 113.025 40.0624 113.565 39.534C114.105 39.0056 114.409 38.289 114.409 37.5417Z" fill="#009EE2"/>
<path d="M127.068 22.3236L126.762 23.1705L125.326 26.4842C126.186 27.7413 126.65 29.2184 126.659 30.7315C126.656 32.8097 125.811 34.8022 124.309 36.2717C122.807 37.7413 120.77 38.5678 118.646 38.5699C118.048 38.5602 117.453 38.4799 116.875 38.3309C116.769 39.0335 116.519 39.708 116.141 40.3142C115.763 40.9205 115.263 41.446 114.673 41.8596C115.946 42.3164 117.29 42.5541 118.646 42.5621C121.85 42.5583 124.922 41.3112 127.188 39.0945C129.453 36.8778 130.728 33.8725 130.731 30.7379C130.729 29.1667 130.404 27.612 129.774 26.1664C129.145 24.7209 128.225 23.414 127.068 22.3236Z" fill="url(#paint0_linear)"/>
<path d="M127.232 11.1169L119.559 16.8782L122.15 17.924L116.928 29.5942L113.707 32.685C114.997 33.2396 116.016 34.2611 116.552 35.5352L120.117 32.1108L125.895 19.4397L128.497 20.4903L127.232 11.1169Z" fill="url(#paint1_linear)"/>
<path d="M118.646 18.9072C115.441 18.9106 112.369 20.1575 110.103 22.3742C107.837 24.591 106.562 27.5965 106.559 30.7315C106.565 31.9748 106.778 33.2089 107.19 34.3852C107.625 33.815 108.173 33.3364 108.802 32.9781C109.43 32.6199 110.126 32.3893 110.848 32.3001C110.714 31.7871 110.642 31.2608 110.632 30.7315C110.641 28.9537 111.266 27.2317 112.405 25.8464C113.544 24.4612 115.13 23.4947 116.903 23.1047L118.32 19.7557L118.679 18.9088L118.646 18.9072Z" fill="url(#paint2_linear)"/>
<defs>
<linearGradient id="paint0_linear" x1="114.673" y1="32.4396" x2="130.731" y2="32.4396" gradientUnits="userSpaceOnUse">
<stop stop-color="#23A1ED"/>
<stop offset="0.43" stop-color="#2BC7E1"/>
<stop offset="1" stop-color="#20D66B"/>
</linearGradient>
<linearGradient id="paint1_linear" x1="10369.7" y1="3562.28" x2="11704.1" y2="3562.28" gradientUnits="userSpaceOnUse">
<stop stop-color="#23A1ED"/>
<stop offset="0.43" stop-color="#2BC7E1"/>
<stop offset="1" stop-color="#20D66B"/>
</linearGradient>
<linearGradient id="paint2_linear" x1="7983.37" y1="2590.27" x2="8879.75" y2="2590.27" gradientUnits="userSpaceOnUse">
<stop stop-color="#23A1ED"/>
<stop offset="0.43" stop-color="#2BC7E1"/>
<stop offset="1" stop-color="#20D66B"/>
</linearGradient>
</defs>
</svg>
